
<svg width="45px" height="9px" viewBox="0 0 45 9" version="1.1" xmlns="http://www.w3.org/2000/svg" xmlns:xlink="http://www.w3.org/1999/xlink">
    <!-- Generator: Sketch 51.2 (57519) - http://www.bohemiancoding.com/sketch -->
    <desc>Created with Sketch.</desc>
    <defs></defs>
    <g id="Page-1" stroke="none" stroke-width="1" fill="none" fill-rule="evenodd">
        <g id="Artboard-Copy-8" transform="translate(-80.000000, -4702.000000)" fill="#53D075">
            <g id="Group-Copy-2" transform="translate(49.000000, 4638.000000)">
                <polygon id="Star" points="35.5 70.75 32.8549664 72.1405765 33.3601228 69.1952882 31.2202457 67.1094235 34.1774832 66.6797118 35.5 64 36.8225168 66.6797118 39.7797543 67.1094235 37.6398772 69.1952882 38.1450336 72.1405765"></polygon>
                <polygon id="Star-Copy" points="44.5 70.75 41.8549664 72.1405765 42.3601228 69.1952882 40.2202457 67.1094235 43.1774832 66.6797118 44.5 64 45.8225168 66.6797118 48.7797543 67.1094235 46.6398772 69.1952882 47.1450336 72.1405765"></polygon>
                <polygon id="Star-Copy-2" points="53.5 70.75 50.8549664 72.1405765 51.3601228 69.1952882 49.2202457 67.1094235 52.1774832 66.6797118 53.5 64 54.8225168 66.6797118 57.7797543 67.1094235 55.6398772 69.1952882 56.1450336 72.1405765"></polygon>
                <polygon id="Star-Copy-3" points="62.5 70.75 59.8549664 72.1405765 60.3601228 69.1952882 58.2202457 67.1094235 61.1774832 66.6797118 62.5 64 63.8225168 66.6797118 66.7797543 67.1094235 64.6398772 69.1952882 65.1450336 72.1405765"></polygon>
                <polygon id="Star-Copy-4" points="71.5 70.75 68.8549664 72.1405765 69.3601228 69.1952882 67.2202457 67.1094235 70.1774832 66.6797118 71.5 64 72.8225168 66.6797118 75.7797543 67.1094235 73.6398772 69.1952882 74.1450336 72.1405765"></polygon>
            </g>
        </g>
    </g>
</svg>
